<?xml version="1.0" encoding="UTF-8" standalone="no"?>
<!-- Generated by IcoMoon.io -->

<svg
   xmlns:dc="http://purl.org/dc/elements/1.1/"
   xmlns:cc="http://creativecommons.org/ns#"
   xmlns:rdf="http://www.w3.org/1999/02/22-rdf-syntax-ns#"
   xmlns:svg="http://www.w3.org/2000/svg"
   xmlns="http://www.w3.org/2000/svg"
   xmlns:sodipodi="http://sodipodi.sourceforge.net/DTD/sodipodi-0.dtd"
   xmlns:inkscape="http://www.inkscape.org/namespaces/inkscape"
   version="1.1"
   width="80"
   height="80"
   viewBox="0 0 80 80"
   id="svg2"
   inkscape:version="0.48.5 r10040"
   sodipodi:docname="key.svg">
  <metadata
     id="metadata11">
    <rdf:RDF>
      <cc:Work
         rdf:about="">
        <dc:format>image/svg+xml</dc:format>
        <dc:type
           rdf:resource="http://purl.org/dc/dcmitype/StillImage" />
      </cc:Work>
    </rdf:RDF>
  </metadata>
  <defs
     id="defs9" />
  <sodipodi:namedview
     pagecolor="#ffffff"
     bordercolor="#666666"
     borderopacity="1"
     objecttolerance="10"
     gridtolerance="10"
     guidetolerance="10"
     inkscape:pageopacity="0"
     inkscape:pageshadow="2"
     inkscape:window-width="1366"
     inkscape:window-height="712"
     id="namedview7"
     showgrid="false"
     inkscape:zoom="1.0429825"
     inkscape:cx="225.42716"
     inkscape:cy="161.43185"
     inkscape:window-x="0"
     inkscape:window-y="27"
     inkscape:window-maximized="1"
     inkscape:current-layer="svg2" />
  <g
     id="icomoon-ignore" />
  <g
     id="g3048"
     style="fill:#444444;fill-opacity:1">
    <g
       id="icomoon-ignore-5"
       style="fill:#444444;fill-opacity:1" />
    <path
       id="path3040"
       d="M 40,4 C 10.652,4 4,10.656 4,40 4,69.344 10.652,76 40,76 69.348,76 76,69.344 76,40 76,10.656 69.348,4 40,4 z"
       inkscape:connector-curvature="0"
       style="fill:#444444;fill-opacity:1" />
  </g>
  <path
     d="M 63.909913,23.600972 C 62.349163,14.34218 53.898729,8.1582522 45.041006,9.7936192 36.180175,11.425879 28.705986,18.548743 30.266736,27.807535 c 0.338888,1.992909 1.268498,5.114409 2.372216,7.352935 L 16.549548,59.171768 c -0.593831,0.886083 -0.92961,2.484142 -0.752393,3.547442 l 1.035318,6.127964 c 0.180325,1.0633 1.15968,1.778384 2.176344,1.59184 l 4.71334,-0.867428 c 1.019773,-0.189653 2.310035,-1.085063 2.872775,-1.99291 l 6.420217,-10.356291 4.306053,-0.79592 7.427552,-12.056949 c 2.443724,0.43216 5.94453,0.286034 8.015166,-0.09638 8.863941,-1.635367 12.709852,-11.413372 11.145993,-20.672163 z m -7.847276,4.744431 c -2.437506,3.634495 -4.921648,1.072627 -8.403799,-1.476805 -3.479042,-2.546324 -6.637851,-4.113292 -4.200345,-7.747787 2.437506,-3.637604 7.231682,-4.523687 10.713833,-1.974255 3.482151,2.546323 4.327817,7.564351 1.890311,11.198847 z"
     id="path5"
     style="fill:#ffffff"
     inkscape:connector-curvature="0" />
</svg>
